<?xml version="1.0" encoding="utf-8"?>
<!-- Generator: Adobe Illustrator 20.1.0, SVG Export Plug-In . SVG Version: 6.00 Build 0)  -->
<svg version="1.1" id="Layer_1" xmlns="http://www.w3.org/2000/svg" xmlns:xlink="http://www.w3.org/1999/xlink" x="0px" y="0px"
	 viewBox="0 0 54 48" style="enable-background:new 0 0 54 48;" xml:space="preserve">
<g>
	<path id="plus" xmlns:default="http://www.w3.org/2000/svg" d="M50.5,20.8c0-1.8-1.4-3.2-3.2-3.2H33.4V3.7c0-1.8-1.4-3.2-3.2-3.2
		h-6.4c-1.8,0-3.2,1.4-3.2,3.2v13.9H6.7c-1.8,0-3.2,1.4-3.2,3.2v6.4c0,1.8,1.4,3.2,3.2,3.2h13.9v13.9c0,1.8,1.4,3.2,3.2,3.2h6.4
		c1.8,0,3.2-1.4,3.2-3.2V30.4h13.9c1.8,0,3.2-1.4,3.2-3.2V20.8L50.5,20.8z"/>
</g>
</svg>
