<?xml version="1.0" encoding="utf-8"?>
<!-- Generator: Adobe Illustrator 20.1.0, SVG Export Plug-In . SVG Version: 6.00 Build 0)  -->
<svg version="1.1" id="Layer_1" xmlns="http://www.w3.org/2000/svg" xmlns:xlink="http://www.w3.org/1999/xlink" x="0px" y="0px"
	 viewBox="0 0 928.7 928.7" style="enable-background:new 0 0 928.7 928.7;" xml:space="preserve">
<style type="text/css">
	.st0{clip-path:url(#SVGID_2_);}
	.st1{fill:#5BA4E2;}
	.st2{fill:url(#SVGID_3_);}
</style>
<g>
	<defs>
		<rect id="SVGID_1_" width="928.6" height="928.6"/>
	</defs>
	<clipPath id="SVGID_2_">
		<use xlink:href="#SVGID_1_"  style="overflow:visible;"/>
	</clipPath>
	<g class="st0">
		<path class="st1" d="M38.7,488.8h48.7c-0.6-9.8-0.9-19.8-0.7-29.8C89.5,252.2,259.4,85.6,466.1,86.6
			c90.9,0.4,174.2,32.9,239.1,86.8c10,8.3,24.8,7.3,33.5-2.4l0.3-0.3c9-10.2,7.9-25.8-2.6-34.5c-74.7-62-170.8-98.9-275.6-98.1
			C224.5,39.9,35.6,232.4,38,468.7C38.1,475.4,38.3,482.2,38.7,488.8z"/>
	</g>
	<g class="st0">
		<g>
			<g>
				
					<linearGradient id="SVGID_3_" gradientUnits="userSpaceOnUse" x1="82.2333" y1="340.4204" x2="426.2332" y2="74.4204" gradientTransform="matrix(1 0 0 -1 0 929.3201)">
					<stop  offset="0" style="stop-color:#5BA4E2"/>
					<stop  offset="1" style="stop-color:#1B1D2C;stop-opacity:0"/>
				</linearGradient>
				<path class="st2" d="M567.8,850.9c-3.7-11.8-15.7-18.9-27.8-16.4c-24.5,5-49.8,7.6-75.7,7.6c-203.2,0-369-160.5-377.4-361.6
					H38.3c8.5,228,196,410.2,426,410.2c29.3,0,57.9-3,85.5-8.6c13.9-2.8,22.3-17.2,18.1-30.7L567.8,850.9z"/>
			</g>
		</g>
	</g>
</g>
</svg>
